<svg width="40" height="40" fill="none" xmlns="http://www.w3.org/2000/svg"><path d="M39.333 0h-30a.667.667 0 00-.667.667v10h1.333V1.333h28.667V38a.656.656 0 01-.614.667c-.057 0-.115-.005-.172-.006-.118-.004-.236-.006-.352-.018-.01 0-.02 0-.03-.004a4.673 4.673 0 01-4.137-4.134c0-.01-.003-.02-.004-.028a4.685 4.685 0 01-.024-.477v-1.333a.667.667 0 00-.667-.667H9.999V20H8.666v12H3.333a.667.667 0 00-.667.667V34a6.007 6.007 0 006 6h29.4a1.985 1.985 0 001.933-2V.667A.667.667 0 0039.333 0zM8.666 38.667A4.672 4.672 0 013.999 34v-.667h28V34c.001.22.014.44.038.658.006.058.018.114.026.171.022.162.048.322.084.48.012.056.027.11.041.166a6.003 6.003 0 00.393 1.094c.016.032.03.066.046.096.084.17.176.333.276.493l.038.067c.109.17.226.334.352.493l.021.029a5.879 5.879 0 00.913.922l-25.561-.002z" fill="#4985FF"/><path d="M22 18.667c.177 0 .346-.07.471-.196l2.667-2.666a.667.667 0 000-.943l-2.667-2.667A.667.667 0 0022 12H3.333a3.333 3.333 0 000 6.667H22zm-.172-5.23l1.896 1.896-1.896 1.896-.474-1.896.474-1.896zm-16.495-.104H20.48l-.333 1.334H6.667V16h13.48l.333 1.333H5.333v-4zm-4 2a2 2 0 012-2H4v4h-.667a2 2 0 01-2-2zm13.999 13.334h20A.667.667 0 0036 28V8a.667.667 0 00-1.138-.471l-20 20a.667.667 0 00.471 1.138zM34.666 9.609v1.724h-1.333v1.334h1.333V14h-1.333v1.333h1.333v1.334h-1.333V18h1.333v1.333h-1.333v1.334h1.333V22h-1.333v1.333h1.333v1.334h-1.333V26h1.333v1.333h-1.333V26h-1.334v1.333h-1.333s.368-.965 0-1.333-1.334 0-1.334 0v1.333H28V26h-1.333v1.333h-1.334V26H24v1.333h-1.333V26h-1.334v1.333H20V26h-1.333v1.333h-1.724L34.666 9.61z" fill="#4985FF"/><path d="M24.99 24.667h6.344a.667.667 0 00.667-.667v-6.343a.667.667 0 00-1.138-.472l-6.344 6.344a.667.667 0 00.472 1.138zm5.677-5.4v4.066h-4.066l4.066-4.066zm0-15.267H17.334v1.333h13.333V4zm2 2.667H15.334V8h17.333V6.667zM15.334 20.666h-4V22h4v-1.334zM14 23.334h-2.666v1.333h2.667v-1.334z" fill="#4985FF"/></svg>