<svg width="15" height="15" fill="none" xmlns="http://www.w3.org/2000/svg"><g clip-path="url(#clip0)" fill="#999"><path d="M13.169 1.792H1.834A1.836 1.836 0 000 3.627v7.746c0 1.012.822 1.835 1.834 1.835h11.332A1.836 1.836 0 0015 11.372V3.63a1.834 1.834 0 00-1.831-1.838zm.996 9.581c0 .55-.447.997-.996.997H1.834a.997.997 0 01-.996-.997V3.63c0-.55.447-.997.996-.997h11.332c.55 0 .996.447.996.997v7.743h.003z"/><path d="M9.46 7.404l3.669-3.29a.421.421 0 00.03-.593.421.421 0 00-.592-.031l-5.06 4.54-.986-.88c-.003-.004-.006-.007-.006-.01a.62.62 0 00-.069-.06L2.43 3.488a.418.418 0 00-.593.034.418.418 0 00.035.593l3.712 3.318-3.697 3.46a.42.42 0 00.574.615l3.753-3.51 1.018.909a.419.419 0 00.558-.003l1.046-.938 3.73 3.545a.417.417 0 00.594-.016.42.42 0 00-.016-.592L9.46 7.404z"/></g><defs><clipPath id="clip0"><path fill="#fff" d="M0 0h15v15H0z"/></clipPath></defs></svg>