<svg width="15" height="15" fill="none" xmlns="http://www.w3.org/2000/svg"><path d="M7.49 0a5.504 5.504 0 00-5.498 5.497c0 1.393.878 3.36 2.608 5.848a39.217 39.217 0 002.562 3.285l.328.37.328-.37a39.274 39.274 0 002.561-3.285c1.73-2.488 2.608-4.455 2.608-5.848A5.504 5.504 0 007.49 0zm2.174 10.837a39.876 39.876 0 01-2.174 2.829 39.837 39.837 0 01-2.17-2.822C3.717 8.54 2.87 6.69 2.87 5.497A4.626 4.626 0 017.49.877a4.626 4.626 0 014.62 4.62c0 1.192-.846 3.039-2.446 5.34z" fill="#999"/><path d="M7.489 2.032a3.248 3.248 0 00-3.245 3.244A3.248 3.248 0 007.49 8.521a3.248 3.248 0 003.244-3.245A3.248 3.248 0 007.49 2.032zm0 5.612A2.37 2.37 0 015.12 5.276 2.37 2.37 0 017.49 2.91a2.37 2.37 0 012.367 2.367A2.37 2.37 0 017.49 7.644z" fill="#999"/></svg>